<svg width="16" height="16" viewBox="0 0 16 16" fill="none" xmlns="http://www.w3.org/2000/svg">
<path d="M7.99784 1.33398H7.69118C7.54953 1.34447 7.41493 1.39993 7.307 1.49226C7.19907 1.5846 7.12346 1.709 7.09118 1.84732C7.05834 1.98531 7.07037 2.13018 7.12552 2.26087C7.18067 2.39155 7.27607 2.50124 7.39784 2.57398C7.99166 2.92615 8.48271 3.42793 8.82195 4.02923C9.1612 4.63052 9.33679 5.31028 9.33118 6.00065C9.33007 6.7777 9.10266 7.53761 8.67673 8.18753C8.2508 8.83744 7.64479 9.34923 6.93274 9.66035C6.22069 9.97147 5.43344 10.0685 4.66717 9.93947C3.90089 9.81048 3.18879 9.46109 2.61784 8.93398C2.5118 8.83332 2.3756 8.7703 2.23023 8.75465C2.08485 8.739 1.93836 8.77157 1.81332 8.84735C1.68828 8.92314 1.59162 9.03793 1.53822 9.17405C1.48483 9.31017 1.47767 9.46006 1.51784 9.60065C1.81772 10.8136 2.45242 11.9179 3.34957 12.7875C4.24672 13.6571 5.37021 14.2572 6.5919 14.5191C7.8136 14.7811 9.08432 14.6945 10.2592 14.2691C11.434 13.8438 12.4657 13.0968 13.2365 12.1135C14.0073 11.1301 14.4863 9.94993 14.6187 8.70751C14.7512 7.46509 14.5319 6.21044 13.9858 5.08666C13.4396 3.96287 12.5887 3.01518 11.5299 2.35166C10.4712 1.68815 9.24731 1.33552 7.99784 1.33398Z" fill="white"/>
</svg>
