<svg width="193" height="38" viewBox="0 0 193 38" fill="none" xmlns="http://www.w3.org/2000/svg">
<path fill-rule="evenodd" clip-rule="evenodd" d="M88.5848 17.4332C91.1487 17.4309 93.7368 17.4297 96.3459 17.4297C98.3283 17.4297 100.299 17.4304 102.255 17.4317C102.883 12.5971 106.553 9.76536 113.621 9.76536C119.976 9.76536 124.69 12.3369 125.454 17.4798C130.14 17.4964 134.701 17.5168 139.116 17.5408C138.488 3.91528 128.894 0 113.303 0C96.9836 0 88.9581 5.61358 88.5848 17.4332ZM139.131 20.1762C138.689 33.7343 130.446 38 113.621 38C96.7911 38 89.3381 32.3067 88.6277 20.284C91.1776 20.2863 93.7513 20.2874 96.3459 20.2874C98.32 20.2874 100.282 20.2868 102.23 20.2854C102.781 25.0085 106.466 28.2346 113.781 28.2346C120.517 28.2346 124.942 25.7845 125.502 20.2371C130.176 20.2206 134.726 20.2002 139.131 20.1762ZM144.43 20.1452C148.941 20.117 153.28 20.0848 157.423 20.0492C158.009 23.8924 160.292 27.6508 168.382 27.6508C176.645 27.6508 178.636 23.7316 179.086 19.8049C183.983 19.7333 188.334 19.6553 192.053 19.5719C191.754 24.6386 191.08 27.8246 189.665 30.5168C186.639 36.3547 178.413 37.8408 168.382 37.8408C158.352 37.8408 149.807 36.3547 146.782 30.5168C145.421 27.9276 144.745 24.8816 144.43 20.1452ZM192.125 18.1468C192.229 15.7245 192.265 12.9012 192.265 9.55307V0.583801H179.209V17.2486C179.209 17.4677 179.208 17.6897 179.203 17.9139C184.085 17.9855 188.42 18.0635 192.125 18.1468ZM157.24 17.6664C157.238 17.5261 157.237 17.3868 157.237 17.2486V0.583801H144.181V9.55307C144.181 12.6393 144.212 15.2796 144.298 17.5711C148.79 17.5991 153.112 17.631 157.24 17.6664ZM79.5469 17.4461C70.75 17.4635 62.2945 17.4943 54.3093 17.5369L42.7566 0.583801H57.3516L66.9047 13.4804L76.5108 0.583801H91.1058L79.5469 17.4461ZM43.1327 17.6062C43.3148 16.5883 43.4134 15.4809 43.4134 14.2765C43.4134 1.06145 30.8883 0.583801 27.3324 0.583801H0V18.1597C3.5457 18.0781 7.69364 18.0014 12.3659 17.9306V11.4637H26.0056C27.5978 11.4637 30.7821 11.5698 30.7821 14.7011C30.7821 16.414 29.9112 17.2887 28.8277 17.7278C33.3321 17.6827 38.1133 17.642 43.1327 17.6062ZM0 19.5574V37.8408H12.3659V29.0307H23.5642L29.8799 37.7877L44.1564 37.8408L36.567 26.8547C38.9879 25.5375 41.2417 23.4321 42.4632 20.1061C24.7016 19.9774 9.97001 19.787 0 19.5574ZM56.1171 20.1897L60.6952 26.9078V37.8408H73.0611V26.9078L77.6133 20.267C70.167 20.2505 62.9751 20.2244 56.1171 20.1897Z" fill="white"/>
</svg>
