<svg width="44" height="37" viewBox="0 0 44 37" fill="none" xmlns="http://www.w3.org/2000/svg">
<path opacity="0.4" d="M24.3936 8.93894V9.2171C23.4941 9.20246 22.5945 9.20246 21.6949 9.20246V8.95358C21.6949 7.94343 20.6694 7.1236 19.446 7.1236H17.6648C15.6318 7.1236 13.9766 5.77672 13.9766 4.13706C13.9766 3.53682 14.5883 3.03906 15.3259 3.03906C16.0816 3.03906 16.6753 3.53682 16.6753 4.13706C16.6753 4.57625 17.1251 4.92761 17.6648 4.92761H19.446C22.1627 4.94225 24.3756 6.74296 24.3936 8.93894" fill="#D5FF40"/>
<path fill-rule="evenodd" clip-rule="evenodd" d="M27.802 9.24361C28.3796 9.25018 28.9587 9.25676 29.5397 9.26168C35.7828 9.26168 40.3346 12.9509 40.3346 18.0456V24.5897C40.3346 29.6844 35.7828 33.3736 29.5397 33.3736C27.0389 33.4175 24.5381 33.4322 22.0193 33.4322C19.5005 33.4322 16.9637 33.4175 14.4629 33.3736C8.21982 33.3736 3.66797 29.6844 3.66797 24.5897V18.0456C3.66797 12.9509 8.21982 9.26168 14.4809 9.26168C16.8377 9.2324 19.2486 9.20312 21.6954 9.20312C22.595 9.20312 23.4946 9.20312 24.3942 9.21776C25.5284 9.21776 26.6625 9.23066 27.802 9.24361ZM19.8963 22.4083H18.0072V23.9601C18.0072 24.5604 17.3955 25.0581 16.6578 25.0581C15.9022 25.0581 15.3085 24.5604 15.3085 23.9601V22.4083H13.4014C12.6637 22.4083 12.052 21.9252 12.052 21.3103C12.052 20.7101 12.6637 20.2123 13.4014 20.2123H15.3085V18.6751C15.3085 18.0749 15.9022 17.5772 16.6578 17.5772C17.3955 17.5772 18.0072 18.0749 18.0072 18.6751V20.2123H19.8963C20.6339 20.2123 21.2457 20.7101 21.2457 21.3103C21.2457 21.9252 20.6339 22.4083 19.8963 22.4083ZM27.5427 19.9342H27.7226C28.4602 19.9342 29.072 19.4511 29.072 18.8362C29.072 18.2359 28.4602 17.7382 27.7226 17.7382H27.5427C26.787 17.7382 26.1933 18.2359 26.1933 18.8362C26.1933 19.4511 26.787 19.9342 27.5427 19.9342ZM30.6192 24.9703H30.7991C31.5368 24.9703 32.1485 24.4872 32.1485 23.8723C32.1485 23.2721 31.5368 22.7743 30.7991 22.7743H30.6192C29.8636 22.7743 29.2699 23.2721 29.2699 23.8723C29.2699 24.4872 29.8636 24.9703 30.6192 24.9703Z" fill="#D5FF40"/>
</svg>
