<svg width="611" height="612" viewBox="0 0 611 612" fill="none" xmlns="http://www.w3.org/2000/svg">
<g opacity="0.2">
<mask id="path-1-inside-1_3264_3104" fill="white">
<path d="M611 306.393C611 266.274 603.098 226.548 587.745 189.483C572.392 152.418 549.889 118.74 521.521 90.3714C493.153 62.0031 459.475 39.5002 422.41 24.1474C385.345 8.79456 345.619 0.892576 305.5 0.892578C265.381 0.89258 225.655 8.79457 188.59 24.1474C151.525 39.5002 117.847 62.0032 89.4789 90.3715C61.1106 118.74 38.6076 152.418 23.2548 189.483C7.90198 226.548 -3.5073e-06 266.274 0 306.393L305.5 306.393H611Z"/>
</mask>
<path d="M611 306.393C611 266.274 603.098 226.548 587.745 189.483C572.392 152.418 549.889 118.74 521.521 90.3714C493.153 62.0031 459.475 39.5002 422.41 24.1474C385.345 8.79456 345.619 0.892576 305.5 0.892578C265.381 0.89258 225.655 8.79457 188.59 24.1474C151.525 39.5002 117.847 62.0032 89.4789 90.3715C61.1106 118.74 38.6076 152.418 23.2548 189.483C7.90198 226.548 -3.5073e-06 266.274 0 306.393L305.5 306.393H611Z" stroke="white" stroke-width="2" mask="url(#path-1-inside-1_3264_3104)"/>
<mask id="path-2-inside-2_3264_3104" fill="white">
<path d="M8.77428e-05 305.5C8.42355e-05 345.619 7.90206 385.345 23.2549 422.41C38.6077 459.475 61.1107 493.153 89.479 521.521C117.847 549.889 151.525 572.392 188.59 587.745C225.655 603.098 265.381 611 305.5 611C345.619 611 385.345 603.098 422.41 587.745C459.475 572.392 493.153 549.889 521.521 521.521C549.889 493.153 572.392 459.475 587.745 422.41C603.098 385.345 611 345.619 611 305.5L305.5 305.5L8.77428e-05 305.5Z"/>
</mask>
<path d="M8.77428e-05 305.5C8.42355e-05 345.619 7.90206 385.345 23.2549 422.41C38.6077 459.475 61.1107 493.153 89.479 521.521C117.847 549.889 151.525 572.392 188.59 587.745C225.655 603.098 265.381 611 305.5 611C345.619 611 385.345 603.098 422.41 587.745C459.475 572.392 493.153 549.889 521.521 521.521C549.889 493.153 572.392 459.475 587.745 422.41C603.098 385.345 611 345.619 611 305.5L305.5 305.5L8.77428e-05 305.5Z" stroke="white" stroke-width="2" mask="url(#path-2-inside-2_3264_3104)"/>
</g>
</svg>
