<svg width="685" height="611" viewBox="0 0 685 611" fill="none" xmlns="http://www.w3.org/2000/svg">
<g clip-path="url(#clip0_3273_1573)">
<rect x="497.516" y="610.247" width="584.065" height="357.226" rx="17.8613" transform="rotate(-148.41 497.516 610.247)" fill="#D5FF40"/>
<circle cx="611.106" cy="335.172" r="23.2197" transform="rotate(-58.41 611.106 335.172)" fill="black"/>
<path d="M93.4306 314.837C96.6605 303.996 100.144 294.597 103.881 286.64C107.504 278.65 111.796 271.542 116.757 265.316C121.718 259.091 127.201 254.45 133.206 251.393C139.13 248.188 146.004 246.385 153.828 245.982C161.537 245.545 170.128 246.738 179.599 249.56C188.957 252.348 196.72 255.903 202.887 260.225C209.088 264.433 213.956 269.362 217.491 275.013C220.946 280.515 223.137 287.132 224.064 294.863C224.911 302.446 224.687 310.704 223.393 319.637C222.098 328.569 219.751 338.742 216.351 350.154C207.919 378.455 196.647 397.524 182.535 407.359C168.342 417.047 150.405 418.66 128.722 412.201C108.637 406.217 95.7567 395.235 90.0805 379.256C84.2903 363.242 85.407 341.769 93.4306 314.837ZM184.956 340.428C188.56 328.331 188.895 318.242 185.959 310.162C183.024 302.081 176.535 296.544 166.493 293.553C156.793 290.663 148.395 291.95 141.3 297.416C134.091 302.847 128.735 311.44 125.233 323.194C123.397 329.356 122.467 334.981 122.443 340.068C122.304 345.121 123.088 349.579 124.795 353.442C126.536 357.191 129.011 360.351 132.221 362.923C135.431 365.494 139.375 367.477 144.054 368.871C153.069 371.557 161.251 370.577 168.598 365.933C175.832 361.254 181.285 352.752 184.956 340.428ZM124.437 217.644L150.752 129.316C151.432 127.033 152.135 124.882 152.861 122.862C153.587 120.842 154.836 118.108 156.609 114.66C158.302 111.064 160.161 107.953 162.186 105.326C164.131 102.55 166.754 99.791 170.057 97.0474C173.245 94.2698 176.72 92.1988 180.481 90.8344C184.162 89.3219 188.563 88.5208 193.684 88.4312C198.838 88.2275 204.383 89.0096 210.317 90.7775C229.261 96.4213 240.591 107.811 244.308 124.946L287.085 110.853L273.196 156.849L238.831 168.975L228.071 205.094L256.486 213.56L244.604 253.444L124.437 217.644ZM206.29 149.962C209.248 140.034 206.961 133.948 199.429 131.704C192.582 129.664 187.611 133.836 184.517 144.221L171.411 188.214L192.979 194.639L206.29 149.962ZM291.127 97.2857L170.96 61.4852L182.843 21.6007L303.01 57.4012L291.127 97.2857Z" fill="black"/>
<path d="M285.433 433.331L314.603 335.417L384.958 356.378L375.421 388.388L362.925 384.665C365.846 391.126 367.319 398.275 367.346 406.11C367.292 413.797 365.242 424.431 361.196 438.011C357.558 450.222 353.375 460.717 348.648 469.497C343.92 478.277 338.966 485.312 333.787 490.603C328.527 495.745 322.792 499.565 316.581 502.064C310.289 504.414 303.979 505.578 297.649 505.555C291.319 505.533 284.502 504.434 277.198 502.258C268.868 499.776 261.704 496.089 255.706 491.196C249.595 486.269 244.874 480.638 241.543 474.303C238.246 467.854 235.946 460.77 234.642 453.051C233.373 445.218 233.169 437.143 234.031 428.827C234.814 420.363 236.531 411.68 239.183 402.779C242.82 390.568 246.69 380.29 250.792 371.945C254.927 363.486 259.402 356.805 264.217 351.903C269.066 346.887 274.032 343.148 279.114 340.686C284.116 338.076 289.952 336.212 296.622 335.092L298.001 376.132C287.936 379.47 279.708 391.867 273.316 413.321C270.868 421.537 269.513 428.589 269.251 434.474C268.988 440.36 269.801 445.137 271.69 448.806C273.465 452.441 275.78 455.305 278.635 457.398C281.491 459.491 285.144 461.201 289.594 462.527C293.703 463.751 297.393 464.291 300.666 464.148C303.825 463.971 307.068 462.887 310.395 460.896C313.755 458.791 316.953 455.147 319.988 449.963C322.91 444.745 325.611 437.971 328.093 429.64C329.827 423.82 331.078 418.788 331.845 414.544C332.499 410.265 332.629 406.701 332.235 403.85C331.842 401 331.399 398.942 330.906 397.677C330.448 396.298 329.617 394.497 328.415 392.275L313.677 441.746L285.433 433.331ZM390.149 338.954L269.982 303.153L281.864 263.269L402.031 299.069L390.149 338.954ZM453.161 127.447L436.944 181.882L346.992 219.195L419.401 240.767L407.518 280.651L287.351 244.851L303.926 189.218L392.373 152.575L321.163 131.36L332.994 91.6465L453.161 127.447Z" fill="black"/>
<path d="M513.757 504.351L497.54 558.786L407.588 596.099L479.997 617.671L468.114 657.556L347.947 621.755L364.521 566.122L452.969 529.479L381.759 508.264L393.59 468.551L513.757 504.351ZM432.32 339.801L568.209 321.579L554.44 367.797L531.538 370.851L513.842 430.25L531.338 445.34L517.67 491.216L413.859 401.768L432.32 339.801ZM483.497 405.741L492.727 374.758L456.59 380.951L483.497 405.741ZM543.897 257.428L569.855 170.298L609.739 182.181L571.899 309.195L451.732 273.395L463.614 233.51L543.897 257.428Z" fill="black"/>
<rect x="221.609" y="264.438" width="73.2314" height="53.584" rx="5.3584" transform="rotate(-148.41 221.609 264.438)" fill="white" stroke="#95A1AB" stroke-width="0.893066"/>
<rect x="213.371" y="239.714" width="34.9514" height="20.094" rx="10.047" transform="rotate(-148.41 213.371 239.714)" stroke="#95A1AB" stroke-width="0.893066"/>
<line x1="187.577" y1="220.44" x2="169.907" y2="209.574" stroke="#95A1AB" stroke-width="0.893066" stroke-linecap="round"/>
<line x1="177.392" y1="197.402" x2="195.061" y2="208.269" stroke="#95A1AB" stroke-width="0.893066" stroke-linecap="round"/>
<line x1="231.526" y1="247.468" x2="212.88" y2="236.001" stroke="#95A1AB" stroke-width="0.893066" stroke-linecap="round"/>
<line x1="220.364" y1="223.829" x2="239.011" y2="235.296" stroke="#95A1AB" stroke-width="0.893066" stroke-linecap="round"/>
<line x1="203.904" y1="209.776" x2="212.208" y2="196.273" stroke="#95A1AB" stroke-width="0.893066" stroke-linecap="round"/>
<line x1="224.311" y1="203.716" x2="216.007" y2="217.219" stroke="#95A1AB" stroke-width="0.893066" stroke-linecap="round"/>
<line x1="184.604" y1="241.156" x2="192.868" y2="227.717" stroke="#95A1AB" stroke-width="0.893066" stroke-linecap="round"/>
<line x1="204.971" y1="235.16" x2="196.706" y2="248.6" stroke="#95A1AB" stroke-width="0.893066" stroke-linecap="round"/>
<path d="M146.579 192.092C146.719 189.701 148.094 184.436 152.474 182.506M138.089 191.618C138.391 187.882 140.84 179.356 148.221 175.143M130.23 191.74C130.712 186.738 134.241 175.092 144.507 168.524M122.398 190.845C122.778 184.818 126.866 170.598 140.175 161.938" stroke="white" stroke-width="3.57227" stroke-linecap="round" stroke-linejoin="round"/>
<path d="M558.005 354.448L578.135 382.177L573.666 389.444L548.765 381.685C547.234 381.202 546.57 381.193 545.389 381.861C543.463 382.953 540.932 385.157 538.926 387.232L538.242 386.586L545.435 374.889C546.352 373.398 548.184 372.677 550.135 373.411L567.527 380.116L553.564 361.67L558.005 354.448ZM593.685 337.149C586.583 332.741 580.208 342.228 577.068 340.205C576.113 339.589 575.642 338.048 576.602 335.899C577.077 334.833 578.646 332.058 581.977 329.864L576.998 325.138C575.372 326.418 573.477 328.185 571.848 330.833C567.67 337.628 568.396 344.665 573.622 347.935C577.479 350.367 581.772 348.243 584.665 346.432C587.634 344.565 589.036 344.189 590.212 344.926C592.01 346.058 591.506 348.667 590.321 350.666C588.25 354.154 586.014 355.542 584.276 356.677L589.421 361.557C591.156 360.411 593.632 357.848 595.556 354.794C599.996 347.572 599.28 340.621 593.685 337.149ZM613.528 324.623L617.438 318.265L587.046 307.224L583.437 313.092C582.626 314.412 582.721 316.005 583.618 317.235L602.273 342.925L606.712 335.707L603.564 331.795L608.988 322.975L613.528 324.623ZM599.251 326.415L591.347 316.567L602.757 320.714L599.251 326.415ZM564.046 344.626L587.529 366.901L583.301 373.775L559.819 351.498L564.046 344.626Z" fill="white"/>
<path fill-rule="evenodd" clip-rule="evenodd" d="M78.3388 261.187C78.652 260.133 78.9685 259.068 79.2882 257.995C79.5311 257.18 79.7727 256.37 80.013 255.566C78.0993 254.716 77.3833 252.859 78.2498 249.95C79.0287 247.336 80.6651 245.712 82.8755 246.03C83.4563 244.105 84.0236 242.232 84.5744 240.419C78.8917 239.006 76.1053 242.472 74.1947 248.885C72.1947 255.598 73.5211 259.586 78.3388 261.187ZM85.6599 240.736C91.1787 242.58 91.9224 246.492 89.8614 253.41C87.7998 260.33 84.5461 262.698 79.5165 261.519C79.8299 260.471 80.1456 259.412 80.4635 258.346C80.7054 257.533 80.9456 256.726 81.1838 255.925C83.1923 256.275 84.9691 255.154 85.8649 252.148C86.6898 249.379 86.2252 247.259 84.0151 246.349C84.5809 244.424 85.1301 242.551 85.6599 240.736ZM86.2965 238.553C86.8376 236.694 87.3561 234.905 87.849 233.197C89.5005 233.426 91.3241 232.946 92.3147 229.621C93.3264 226.225 91.961 224.926 90.4025 224.259C90.9731 222.236 91.4741 220.437 91.8955 218.898C93.9407 219.641 95.1676 220.308 96.1009 221.22C98.1312 223.179 97.7344 226.744 96.5054 230.87C95.2764 234.995 93.6183 238.327 90.8468 238.856C89.6159 239.098 88.2812 239.003 86.2965 238.553ZM91.3183 218.693C90.3342 218.353 89.1765 217.992 87.7981 217.582L84.1094 216.483L82.5098 221.852L89.3633 223.894C89.4544 223.921 89.5466 223.949 89.6393 223.979C90.2668 221.98 90.8301 220.207 91.3183 218.693ZM86.8466 232.981C86.7875 232.964 86.7291 232.947 86.6712 232.93L79.8177 230.888L78.2181 236.258L81.9067 237.356C83.1774 237.735 84.268 238.046 85.2217 238.292C85.7836 236.448 86.3263 234.674 86.8466 232.981ZM77.2361 264.908C76.1659 268.526 75.143 272.006 74.1826 275.294L65.7912 277.969L67.5795 271.967L74.0537 269.618L69.9269 264.087L71.7151 258.085L77.2361 264.908ZM72.8409 279.902C72.4438 279.701 71.9995 279.525 71.5029 279.377C66.0682 277.757 64.3371 282.85 63.9014 284.312L60.5526 295.553L67.784 297.707C68.1848 296.239 68.6615 294.524 69.2049 292.594L66.5421 291.8L68.2133 286.191C68.4084 285.536 68.8422 284.24 70.1299 284.623C70.8386 284.834 71.0904 285.304 71.136 285.807C71.67 283.947 72.2398 281.973 72.8409 279.902ZM68.3588 297.879L75.8747 300.118L77.3899 295.032L73.7667 293.953L75.1387 289.347L79.5139 287.823L81.2849 281.958L75.837 283.733C75.592 282.577 75.0031 281.393 73.7868 280.484C71.5578 287.772 69.6747 293.807 68.3588 297.879ZM75.4951 274.875L78.815 273.817L83.3113 275.157L84.8264 270.071L80.3301 268.731L78.1593 266.049C77.2407 269.108 76.3492 272.061 75.4951 274.875Z" fill="black"/>
</g>
<defs>
<clipPath id="clip0_3273_1573">
<rect x="497.516" y="610.247" width="584.065" height="357.226" rx="17.8613" transform="rotate(-148.41 497.516 610.247)" fill="white"/>
</clipPath>
</defs>
</svg>
