<svg width="110" height="110" viewBox="0 0 110 110" fill="none" xmlns="http://www.w3.org/2000/svg">
<circle cx="55" cy="55" r="55" fill="url(#paint0_linear_3264_3075)"/>
<path d="M26.0987 77.6844C26.8525 78.6165 27.1694 79.6496 27.0495 80.784C26.9296 81.9183 26.4093 82.8577 25.4888 83.6022C24.5625 84.3514 23.5166 84.6644 22.351 84.5411C21.1751 84.4168 20.2195 83.9001 19.4843 82.9911C18.7398 82.0705 18.4291 81.0275 18.5523 79.8619C18.6756 78.6964 19.1946 77.7437 20.1094 77.0038C21.0242 76.264 22.0615 75.958 23.2213 76.0859C24.3811 76.2137 25.3402 76.7466 26.0987 77.6844ZM25.7502 80.6071C25.8349 79.8058 25.619 79.0859 25.1025 78.4472C24.586 77.8086 23.9323 77.4475 23.1414 77.3638C22.3401 77.2791 21.6115 77.502 20.9556 78.0325C20.2882 78.5722 19.9121 79.2428 19.8274 80.0441C19.7427 80.8454 19.9563 81.5625 20.4681 82.1954C20.9846 82.834 21.6441 83.1905 22.4465 83.2648C23.2374 83.3484 23.9665 83.1203 24.6339 82.5806C25.2898 82.0501 25.6619 81.3923 25.7502 80.6071Z" fill="white"/>
<path d="M17.7511 68.361L12.6206 70.6187L12.111 69.4605L19.6187 66.1567L19.9227 66.8476L16.7239 73.3847L21.8138 71.145L22.3234 72.3031L14.8157 75.6069L14.5474 74.9973L17.7511 68.361Z" fill="white"/>
<path d="M18.0486 57.9915L19.0477 63.507L10.9766 64.9691L10.7491 63.7131L17.6079 62.4706L16.8363 58.2111L18.0486 57.9915Z" fill="white"/>
<path d="M10.0417 50.5707L10.1053 49.1292L15.2593 52.1785L18.1756 52.3071L18.1194 53.5823L15.2031 53.4537L9.80213 56.0042L9.8657 54.5627L13.923 52.7529L10.0417 50.5707Z" fill="white"/>
<path d="M20.6687 41.376L14.211 38.7817L13.3173 41.0063L12.1637 40.5429L14.4353 34.8886L15.5888 35.352L14.6951 37.5766L21.1528 40.171L20.6687 41.376Z" fill="white"/>
<path d="M26.5921 31.0751L25.7219 32.3491L21.9371 32.1834L21.3236 33.0816L23.9816 34.8971L23.2616 35.9511L16.4883 31.3248L18.1223 28.9326C18.6022 28.2299 19.1732 27.8269 19.8353 27.7235C20.5034 27.6243 21.1186 27.7666 21.6807 28.1506C22.139 28.4636 22.4566 28.8777 22.6334 29.3928C22.8084 29.8976 22.7972 30.4321 22.6 30.9963L26.5921 31.0751ZM19.1213 29.615L18.2073 30.9531L20.3429 32.4118L21.1442 31.2386C21.4238 30.8292 21.5389 30.4508 21.4894 30.1034C21.438 29.7457 21.2504 29.4562 20.9266 29.235C20.6211 29.0264 20.3038 28.953 19.9747 29.015C19.6395 29.0728 19.355 29.2728 19.1213 29.615Z" fill="white"/>
<path d="M30.6726 27.3439C30.0091 27.9451 29.2899 28.2424 28.5149 28.2357C27.7503 28.2295 27.0501 27.8754 26.4141 27.1736L22.8142 23.2009L23.7601 22.3438L27.2482 26.1931C27.6606 26.6482 28.0885 26.8945 28.5319 26.9321C28.9808 26.9647 29.4137 26.7921 29.8304 26.4145C30.2362 26.0468 30.4424 25.6353 30.4491 25.1798C30.4558 24.7244 30.2579 24.2746 29.8555 23.8305L26.3674 19.9812L27.3215 19.1166L30.9213 23.0893C31.5623 23.7966 31.8483 24.531 31.7794 25.2925C31.7105 26.0539 31.3416 26.7377 30.6726 27.3439Z" fill="white"/>
<path d="M37.3042 22.6659C36.7755 22.9637 36.2165 23.1171 35.6272 23.1263C35.0342 23.1291 34.485 22.9756 33.9793 22.6659L34.3252 21.5157C34.7183 21.7614 35.1223 21.8905 35.537 21.9032C35.9583 21.9123 36.3494 21.8151 36.7105 21.6118C37.0715 21.4084 37.3122 21.1497 37.4326 20.8356C37.5529 20.5216 37.535 20.2259 37.3789 19.9487C37.1755 19.5876 36.7677 19.4139 36.1554 19.4275C36.0067 19.4349 35.705 19.4647 35.2504 19.5169C34.7618 19.5543 34.4116 19.5732 34.1995 19.5737C33.2341 19.5484 32.5481 19.1747 32.1414 18.4526C31.8219 17.8853 31.7631 17.2984 31.9651 16.6921C32.1699 16.0756 32.6044 15.5804 33.2685 15.2064C34.1711 14.698 35.0889 14.6312 36.0218 15.006L35.7655 16.1567C35.0962 15.8882 34.465 15.921 33.8719 16.2551C33.5559 16.433 33.3434 16.6589 33.2343 16.9326C33.1281 17.1963 33.1494 17.4603 33.2983 17.7246C33.4907 18.0664 33.8504 18.2375 34.3772 18.238C34.6553 18.2342 34.9973 18.2157 35.4032 18.1824C35.8679 18.133 36.2412 18.1096 36.5229 18.1123C37.4766 18.1017 38.1605 18.4639 38.5744 19.1989C38.9158 19.8049 38.9701 20.4367 38.7375 21.0943C38.4976 21.739 38.0198 22.2628 37.3042 22.6659Z" fill="white"/>
<path d="M43.3159 19.8604L42.0905 20.2176L39.7951 12.3428L41.0206 11.9856L41.9741 15.257L45.725 14.1637L44.7715 10.8923L45.9969 10.5351L48.2923 18.4099L47.0668 18.7671L46.0698 15.3465L42.3189 16.4398L43.3159 19.8604Z" fill="white"/>
<path d="M52.8021 18.0469L52.4243 11.0978L50.0304 11.2279L49.9629 9.98659L56.0475 9.65581L56.115 10.8971L53.721 11.0273L54.0988 17.9764L52.8021 18.0469Z" fill="white"/>
<path d="M64.0042 18.9365L58.8187 18.1161L60.1003 10.0144L65.2749 10.833L65.0859 12.028L61.1721 11.4088L60.8235 13.6124L64.4522 14.1864L64.2632 15.3814L60.6344 14.8074L60.2685 17.1206L64.1933 17.7415L64.0042 18.9365Z" fill="white"/>
<path d="M69.4255 20.8915L66.6563 19.7459L69.7918 12.1663L72.6533 13.3501C73.7542 13.8055 74.4743 14.5038 74.8137 15.445C75.1667 16.3918 75.1014 17.4498 74.6177 18.6191C74.1397 19.7746 73.4344 20.5599 72.502 20.975C71.5724 21.3832 70.5469 21.3554 69.4255 20.8915ZM70.5045 13.7825L68.3025 19.1056L69.9435 19.7845C70.682 20.09 71.3596 20.078 71.9764 19.7486C72.5999 19.422 73.0744 18.8655 73.3997 18.0792C73.7165 17.3133 73.7696 16.5946 73.5589 15.9229C73.3552 15.254 72.8875 14.7683 72.1558 14.4656L70.5045 13.7825Z" fill="white"/>
<path d="M81.2959 29.079C80.4376 28.2528 79.9899 27.2774 79.9529 26.153C79.9156 25.018 80.3203 24.0108 81.1671 23.1312C82.0292 22.2356 83.0359 21.7873 84.1873 21.7864C85.3437 21.7801 86.3457 22.1849 87.1933 23.0009C87.7211 23.5089 88.1013 24.1009 88.3339 24.7768C88.5664 25.4422 88.6258 26.09 88.5122 26.7202L87.2869 26.6807C87.4227 25.5687 87.1121 24.6483 86.3552 23.9196C85.7581 23.3448 85.0515 23.0652 84.2354 23.0807C83.4195 23.1067 82.7139 23.4289 82.1186 24.0472C81.5182 24.671 81.2281 25.3777 81.2484 26.1676C81.274 26.9625 81.5879 27.65 82.1903 28.2299C82.974 28.9843 83.9163 29.2751 85.0172 29.1024L85.1187 30.3094C84.4615 30.4265 83.7934 30.3791 83.1142 30.1669C82.4351 29.9548 81.829 29.5922 81.2959 29.079Z" fill="white"/>
<path d="M86.906 36.4712C86.2908 35.4423 86.1224 34.3748 86.4007 33.2686C86.6791 32.1625 87.3263 31.3056 88.3425 30.698C89.365 30.0866 90.4445 29.9239 91.5811 30.2099C92.7279 30.4984 93.6013 31.1444 94.2013 32.1479C94.8089 33.164 94.9697 34.2404 94.6837 35.377C94.3977 36.5136 93.7498 37.3838 92.74 37.9876C91.7302 38.5914 90.6602 38.7484 89.5299 38.4586C88.3996 38.1689 87.525 37.5064 86.906 36.4712ZM87.6622 33.6265C87.4656 34.4079 87.5781 35.1511 87.9996 35.8561C88.4211 36.561 89.0175 37.0105 89.7888 37.2046C90.5702 37.4012 91.3229 37.2831 92.0469 36.8502C92.7836 36.4097 93.2503 35.7987 93.4469 35.0173C93.6435 34.2359 93.533 33.4958 93.1153 32.7972C92.6937 32.0923 92.091 31.6466 91.307 31.4601C90.5357 31.266 89.7818 31.3893 89.045 31.8298C88.321 32.2627 87.8601 32.8616 87.6622 33.6265Z" fill="white"/>
<path d="M90.2536 43.516L89.9341 42.2917L97.8708 40.2204L98.0474 40.897L94.0511 45.496L99.7795 47.5342L99.9617 48.2323L92.025 50.3035L91.6999 49.0577L96.7798 47.732L92.3239 46.1303L92.2286 45.7652L95.3335 42.1903L90.2536 43.516Z" fill="white"/>
<path d="M100.193 52.8223L100.198 55.6527C100.199 56.548 99.9454 57.2256 99.4357 57.6853C98.9333 58.1524 98.3233 58.3866 97.6055 58.3879C96.8952 58.3892 96.288 58.1498 95.7839 57.6698C95.2873 57.1971 95.0381 56.4909 95.0364 55.5511L95.0337 54.1082L91.9925 54.1138L91.9901 52.8373L100.193 52.8223ZM96.2103 54.106L96.213 55.5823C96.2138 56.0558 96.3477 56.4256 96.6146 56.6915C96.8888 56.9574 97.2258 57.0899 97.6253 57.0892C98.0249 57.0885 98.354 56.9658 98.6125 56.7211C98.8711 56.4765 98.9999 56.1395 98.9992 55.7104L98.9962 54.1009L96.2103 54.106Z" fill="white"/>
<path d="M90.1753 67.1233L90.4776 65.7805L92.619 65.4663L93.2821 62.5209L91.482 61.3192L91.7843 59.9765L99.0697 64.9617L98.8869 65.7738L90.1753 67.1233ZM93.8521 65.3457L96.9979 64.9162L94.3397 63.18L93.8521 65.3457Z" fill="white"/>
<path d="M89.2112 75.0273L94.2267 77.5299L93.6617 78.6621L86.3222 74.9999L86.6592 74.3246L93.7312 72.6062L88.7554 70.1234L89.3204 68.9912L96.6599 72.6534L96.3626 73.2493L89.2112 75.0273Z" fill="white"/>
<path d="M87.9195 85.9689L86.9853 87.0686L84.784 81.4994L82.5592 79.6094L83.3856 78.6366L85.6104 80.5266L91.4407 81.8239L90.5065 82.9236L86.1918 81.8651L87.9195 85.9689Z" fill="white"/>
<rect x="50.25" y="87.25" width="9.5" height="14.5" rx="4.75" stroke="white" stroke-width="0.5"/>
<rect x="54.4453" y="90.334" width="1.11111" height="2.77778" rx="0.555556" fill="white"/>
<path d="M55 35.002L56.1331 41.8808C57.1465 48.0333 61.9686 52.8555 68.1211 53.8689L75 55.002L68.1211 56.135C61.9686 57.1484 57.1465 61.9706 56.1331 68.1231L55 75.002L53.8669 68.1231C52.8535 61.9706 48.0314 57.1484 41.8789 56.135L35 55.002L41.8789 53.8689C48.0314 52.8555 52.8535 48.0333 53.8669 41.8808L55 35.002Z" fill="white"/>
<defs>
<linearGradient id="paint0_linear_3264_3075" x1="20.5" y1="15.5" x2="92.5" y2="91" gradientUnits="userSpaceOnUse">
<stop stop-color="#FF3E3E"/>
<stop offset="1" stop-color="#FFA572"/>
</linearGradient>
</defs>
</svg>
